[Header]
FileType HTR
DataType HTRS
FileVersion 1
NumSegments 81
NumFrames 2
DataFrameRate 30
EulerRotationOrder ZYX
CalibrationUnits mm
RotationUnits Degrees
GlobalAxisofGravity Y
BoneLengthAxis Y
ScaleFactor 1.0
[SegmentNames&Hierarchy]
Hips	GLOBAL
LeftUpLeg	Hips
LeftLeg	LeftUpLeg
LeftFoot	LeftLeg
LeftToeBase	LeftFoot
LeftToeEnd	LeftToeBase
LeftLegRoll	LeftLeg
LeftUpLegRoll	LeftUpLeg
Spine	Hips
Spine1	Spine
Spine2	Spine1
LeftShoulder	Spine2
LeftArm	LeftShoulder
LeftForeArm	LeftArm
LeftForeArmRoll	LeftForeArm
LeftHand	LeftForeArm
LeftHandThumb1	LeftHand
LeftHandThumb2	LeftHandThumb1
LeftHandThumb3	LeftHandThumb2
LeftHandThumb4	LeftHandThumb3
LeftHandIndex1	LeftHand
LeftHandIndex2	LeftHandIndex1
LeftHandIndex3	LeftHandIndex2
LeftHandIndex4	LeftHandIndex3
LeftHandMiddle1	LeftHand
LeftHandMiddle2	LeftHandMiddle1
LeftHandMiddle3	LeftHandMiddle2
LeftHandMiddle4	LeftHandMiddle3
LeftHandRing1	LeftHand
LeftHandRing2	LeftHandRing1
LeftHandRing3	LeftHandRing2
LeftHandRing4	LeftHandRing3
LeftHandPinky1	LeftHand
LeftHandPinky2	LeftHandPinky1
LeftHandPinky3	LeftHandPinky2
LeftHandPinky4	LeftHandPinky3
LH_WP	LeftHand
LeftArmRoll	LeftArm
RightShoulder	Spine2
RightArm	RightShoulder
RightForeArm	RightArm
RightHand	RightForeArm
RightHandThumb1	RightHand
RightHandThumb2	RightHandThumb1
RightHandThumb3	RightHandThumb2
RightHandThumb4	RightHandThumb3
RightHandIndex1	RightHand
RightHandIndex2	RightHandIndex1
RightHandIndex3	RightHandIndex2
RightHandIndex4	RightHandIndex3
RightHandMiddle1	RightHand
RightHandMiddle2	RightHandMiddle1
RightHandMiddle3	RightHandMiddle2
RightHandMiddle4	RightHandMiddle3
RightHandRing1	RightHand
RightHandRing2	RightHandRing1
RightHandRing3	RightHandRing2
RightHandRing4	RightHandRing3
RightHandPinky1	RightHand
RightHandPinky2	RightHandPinky1
RightHandPinky3	RightHandPinky2
RightHandPinky4	RightHandPinky3
RH_WP	RightHand
RightForeArmRoll	RightForeArm
RightArmRoll	RightArm
Neck	Spine2
Neck1	Neck
Head	Neck1
Jaw	Head
L_Eye	Head
R_Eye_Socket	Head
L_Eye_Socket	Head
R_Eye	Head
BK_WEP1	Spine2
RightUpLeg	Hips
RightLeg	RightUpLeg
RightFoot	RightLeg
RightToeBase	RightFoot
RightToeEnd	RightToeBase
RightLegRoll	RightLeg
RightUpLegRoll	RightUpLeg
[BasePosition]
Hips	0	0	0	-90	-0	90	1
LeftUpLeg	0	0	0	0.1245552539	2.943081661	177.8888274	1
LeftLeg	0	0	0	-1.553056268e-018	-0.4645708947	-3.190265207	1
LeftFoot	0	0	0	-3.427050049	1.138743235	66.87228657	1
LeftToeBase	0	0	0	-0.1150285401	1.405135968	23.664964	1
LeftToeEnd	0	0	0	0	86.14893154	4.67902715	1
LeftLegRoll	0	0	0	0	-0.0003937979005	-0.0001763048027	1
LeftUpLegRoll	0	0	0	-7.231744079e-028	1.685187608e-005	2.666244888e-005	1
Spine	0	0	0	0	0	-3.518269458	1
Spine1	0	0	0	0	-0	7.885175398	1
Spine2	0	0	0	0	0	-0.09285174208	1
LeftShoulder	0	0	0	160.7860865	59.06322903	63.61338722	1
LeftArm	0	0	0	2.904619295	-26.91541272	-17.55355673	1
LeftForeArm	0	0	0	-90.22254753	-4.753527924	8.383736267	1
LeftForeArmRoll	0	0	0	0	0	0	1
LeftHand	0	0	0	90	-0	0	1
LeftHandThumb1	0	0	0	108.0365432	-19.14265923	-11.8633769	1
LeftHandThumb2	0	0	0	-15.63070336	0.2480216413	-4.679087203	1
LeftHandThumb3	0	0	0	-0.5621291509	1.199440794	-4.464397336	1
LeftHandThumb4	0	0	0	0	0	0	1
LeftHandIndex1	0	0	0	-0.1287480184	2.273223042	-5.916767355	1
LeftHandIndex2	0	0	0	0	0	0	1
LeftHandIndex3	0	0	0	0	0	0	1
LeftHandIndex4	0	0	0	0.06487671692	1.045318787	6.79153565	1
LeftHandMiddle1	0	0	0	-0.1873173809	2.298574433	-7.334490242	1
LeftHandMiddle2	0	0	0	0	0	0	1
LeftHandMiddle3	0	0	0	0	0	0	1
LeftHandMiddle4	0	0	0	0.1011317606	1.031425995	10.25668623	1
LeftHandRing1	0	0	0	-0.2038904391	2.187828672	-7.999827968	1
LeftHandRing2	0	0	0	0	0	0	1
LeftHandRing3	0	0	0	0	0	0	1
LeftHandRing4	0	0	0	0.1270826821	1.220105684	11.26838389	1
LeftHandPinky1	0	0	0	-0.1150589234	1.798482907	-6.335472682	1
LeftHandPinky2	0	0	0	0	0	0	1
LeftHandPinky3	0	0	0	0	0	0	1
LeftHandPinky4	0	0	0	0.09523892401	1.784551098	6.714729621	1
LH_WP	0	0	0	4.792186366e-012	2.776477095	-2.674328027	1
LeftArmRoll	0	0	0	0	2.176196996e-005	0	1
RightShoulder	0	0	0	160.7860865	59.06322903	-116.3866128	1
RightArm	0	0	0	2.904619295	-26.91541272	-17.55355673	1
RightForeArm	0	0	0	-90.22254753	-4.753527924	8.383736267	1
RightHand	0	0	0	90	-0	0	1
RightHandThumb1	0	0	0	108.0365432	-19.14265923	-11.8633769	1
RightHandThumb2	0	0	0	-15.63070336	0.2480216413	-4.679087203	1
RightHandThumb3	0	0	0	-0.5621291509	1.199440794	-4.464397336	1
RightHandThumb4	0	0	0	1.20741827e-006	-0	0	1
RightHandIndex1	0	0	0	-0.1287480183	2.273223042	-5.916767355	1
RightHandIndex2	0	0	0	0	0	0	1
RightHandIndex3	0	0	0	0	0	0	1
RightHandIndex4	0	0	0	0.06487671641	1.045318787	6.79153565	1
RightHandMiddle1	0	0	0	-0.187317381	2.298574433	-7.334490242	1
RightHandMiddle2	0	0	0	0	0	0	1
RightHandMiddle3	0	0	0	0	0	0	1
RightHandMiddle4	0	0	0	0.1011317605	1.031425995	10.25668623	1
RightHandRing1	0	0	0	-0.2038904391	2.187828672	-7.999827968	1
RightHandRing2	0	0	0	0	0	0	1
RightHandRing3	0	0	0	0	0	0	1
RightHandRing4	0	0	0	0.1270826818	1.220105684	11.26838389	1
RightHandPinky1	0	0	0	-0.1150589234	1.798482907	-6.335472682	1
RightHandPinky2	0	0	0	0	0	0	1
RightHandPinky3	0	0	0	0	0	0	1
RightHandPinky4	0	0	0	0.09523892401	1.784551098	6.714729621	1
RH_WP	0	0	0	4.903613047e-012	2.776477095	-2.674328027	1
RightForeArmRoll	0	0	0	0	0	0	1
RightArmRoll	0	0	0	0	2.17619649e-005	0	1
Neck	0	0	0	-0.5911792768	-0.1801087749	-21.21735117	1
Neck1	0	0	0	0.6101271651	0.09836090716	7.78649821	1
Head	0	0	0	0	-0	9.996624533	1
Jaw	0	0	0	-0.06946325017	0.08775954594	-129.2006421	1
L_Eye	0	0	0	90.83837297	89.99999895	0	1
R_Eye_Socket	0	0	0	90.83837297	89.99999895	0	1
L_Eye_Socket	0	0	0	90.83837262	89.99999895	0	1
R_Eye	0	0	0	90.83837262	89.99999895	0	1
BK_WEP1	0	0	0	94.2740542	90	0	1
RightUpLeg	0	0	0	0.1245552539	2.943081661	-2.111172621	1
RightLeg	0	0	0	1.770668338e-011	-0.4645708947	-3.190265207	1
RightFoot	0	0	0	-3.427050049	1.138743235	66.87228657	1
RightToeBase	0	0	0	-0.1150285401	1.405135968	23.664964	1
RightToeEnd	0	0	0	-4.55797616e-013	86.14893154	4.67902715	1
RightLegRoll	0	0	0	0.0001763058084	-5.425123434e-010	1.211761319e-009	1
RightUpLegRoll	0	0	0	2.663171688e-005	1.239300521e-011	-7.832936944e-012	1
[Hips]
7	-41.74600983	904.144165	1545.57373	-1.975784421	11.5628109	-5.521276474	1.0
8	-38.6445694	897.2015381	1747.103516	-8.109752655	8.916095734	-7.17484045	1.0
[LeftUpLeg]
7	-47.72187042	-9.041498184	-88.56562805	-8.35549736	9.623786926	27.77898788	1.0
8	-47.72187042	-9.04162693	-88.56562805	-7.52940464	9.523495674	51.27194214	1.0
[LeftLeg]
7	428.6575012	6.79368386e-005	-0.000176447953	-9.797380447	4.27034235	-130.4830017	1.0
8	428.657196	7.363292389e-005	-0.000176447953	-11.51261902	3.331646919	-135.6229095	1.0
[LeftFoot]
7	444.418335	-0.09747099876	-1.57048583	3.950540543	11.72223854	-13.8461647	1.0
8	444.4173889	-0.1029980928	-1.743754745	8.07689476	14.22957611	-6.613778591	1.0
[LeftToeBase]
7	155.2784729	0.0001774456177	6.297896562e-006	0.0001767561189	-0.0001706919284	8.417876234e-005	1.0
8	155.2784576	0.0001733573445	6.297896562e-006	0.0003576522868	-0.0009442320443	8.253758278e-005	1.0
[LeftToeEnd]
7	87.1754837	4.440892099e-015	-1.243449788e-013	0	0	0	1.0
8	87.1754837	4.440892099e-015	-1.243449788e-013	0	0	0	1.0
[LeftLegRoll]
7	198.5737915	-7.087733593e-006	7.328816537e-006	-7.769855499	0.3662013412	-0.02263140865	1.0
8	198.5737915	-9.498992586e-005	7.328816537e-006	-8.678462029	0.4065836966	-0.02388968691	1.0
[LeftUpLegRoll]
7	166.720108	3.451918747e-005	-6.571605809e-006	2.000703887e-007	1.379017613e-005	1.322874255e-006	1.0
8	166.7197876	2.7994427e-005	-6.571605809e-006	2.000703887e-007	1.379017613e-005	1.322874255e-006	1.0
[Spine]
7	66.67904663	-8.790196419	-2.70905166e-005	-0.3784642518	-7.917575359	-11.04510689	1.0
8	66.67904663	-8.790392876	-2.70905166e-005	0.9458245039	-6.334927559	-10.52093983	1.0
[Spine1]
7	120.7898407	-4.430369881e-005	5.73854777e-006	-3.09381938	-2.895821095	-0.6648874283	1.0
8	120.7898407	-3.674251275e-006	5.73854777e-006	0.5027584434	-2.072167158	-0.5239887238	1.0
[Spine2]
7	97.34932709	8.443716069e-005	3.778036216e-006	-2.866879225	-3.128250599	-0.559034586	1.0
8	97.34932709	-5.552218499e-005	3.778036216e-006	0.6822116971	-2.027733326	-0.5541331172	1.0
[LeftShoulder]
7	193.5426483	-57.9708252	-41.53356171	9.769795418	8.356425285	-6.760858536	1.0
8	193.5426483	-57.9708252	-41.53356171	10.57967567	8.623164177	-8.253781319	1.0
[LeftArm]
7	156.8789978	7.628487947e-005	6.319886597e-005	26.77288818	-14.44717979	-65.19831848	1.0
8	156.8790741	8.838513895e-005	-4.567106953e-005	25.9127121	-4.28706789	-59.96178818	1.0
[LeftForeArm]
7	274.6985474	0.002770025749	-0.0003814913798	-1.530689716	-4.239843369	-63.34400558	1.0
8	274.6985779	0.003119918518	-8.57244595e-005	-1.529423714	-3.349811554	-65.97000885	1.0
[LeftForeArmRoll]
7	107.0116882	8.881784197e-014	2.842170943e-013	13.75425243	0	0	1.0
8	107.0116882	8.881784197e-014	2.842170943e-013	5.15486145	0	0	1.0
[LeftHand]
7	266.6985474	8.514367801e-005	9.174418665e-005	17.19281769	-16.76433372	3.742590189	1.0
8	266.6986694	-6.027967174e-005	-2.996611784e-006	6.443576813	-11.11126328	7.104072571	1.0
[LeftHandThumb1]
7	31.59936905	-14.66598034	50.44494629	-0.01297361683	-13.85648251	-3.613419533	1.0
8	31.59936905	-14.66598034	50.44494629	-0.01297645178	-13.8563633	-3.613005877	1.0
[LeftHandThumb2]
7	53.38066864	-1.130295914e-005	-1.026145674e-005	-0.0002536315878	0.3000540137	-0.000232546794	1.0
8	53.38053131	0.0001128636286	0.0001262273727	-0.0002536315878	0.3000540137	-0.00136287231	1.0
[LeftHandThumb3]
7	33.23007965	5.394171239e-005	-4.933813034e-005	-0.0004044212401	0.0001053116139	0.0001496972691	1.0
8	33.23007965	5.394171239e-005	-4.933813034e-005	-0.0004044212401	2.372652125e-005	0.0006960841711	1.0
[LeftHandThumb4]
7	41.64105225	4.604625792e-005	7.286391337e-005	-0.0005963343428	0.0001761054446	-7.360037853e-005	1.0
8	41.64096451	4.604625792e-005	0.0002106411412	-0.0005963343428	0.0001761054446	-7.360037853e-005	1.0
[LeftHandIndex1]
7	107.8286362	-7.018170834	35.98754883	-5.758398765e-005	-1.98815469e-005	-6.680716991	1.0
8	107.8285599	-7.018170834	35.98754883	-5.758398765e-005	0.0001074812317	-6.681584358	1.0
[LeftHandIndex2]
7	41.10884857	5.474074715e-005	-2.628010589e-005	-0.0001180831969	-0.0216595605	-6.724200249	1.0
8	41.10884857	5.474074715e-005	-2.616072561e-005	-0.0001180831969	-0.02173396386	-6.721070766	1.0
[LeftHandIndex3]
7	28.81015968	-6.260780356e-005	-9.666137885e-006	-0.0001884985686	-0.02162995003	-6.719065666	1.0
8	28.81000137	-6.260780356e-005	3.645908873e-005	-0.0001884985686	-0.0217857454	-6.722438335	1.0
[LeftHandIndex4]
7	28.71869659	-4.528491991e-005	-3.577753205e-007	-0.0005197712453	7.277534314e-005	0.0001651600323	1.0
8	28.7185955	-4.528491991e-005	8.941787382e-005	-0.0005197712453	7.277534314e-005	0.0001651600323	1.0
[LeftHandMiddle1]
7	108.9268799	-1.06894958	10.86118317	-0.0008985737804	-0.02297086827	-6.721980095	1.0
8	108.9267883	-1.06894958	10.86118317	-0.0008985737804	-0.02297455072	-6.721537113	1.0
[LeftHandMiddle2]
7	50.48877335	1.922091906e-005	-5.554509244e-006	-0.0009549590177	-0.02308406867	-6.726570129	1.0
8	50.48879242	-2.162819874e-005	-5.554509244e-006	-0.0009549590177	-0.02308406867	-6.728404522	1.0
[LeftHandMiddle3]
7	33.42198563	-5.08652156e-005	1.671697873e-006	-0.001054303022	-0.023024261	-6.723922729	1.0
8	33.42189789	-2.609414878e-005	8.19503548e-005	-0.001054303022	-0.02287461609	-6.721581459	1.0
[LeftHandMiddle4]
7	30.04674721	2.60834604e-005	1.565556158e-005	-0.0005761348875	-2.442478035e-005	0.0001658203546	1.0
8	30.04674721	2.60834604e-005	1.565556158e-005	-0.0005761348875	-2.442478035e-005	0.0001658203546	1.0
[LeftHandRing1]
7	109.0502777	-2.691740036	-12.87386799	-0.001201222069	-0.02290125191	-6.722114086	1.0
8	109.0503998	-2.691740036	-12.87386799	-0.001201222069	-0.02290125191	-6.721541405	1.0
[LeftHandRing2]
7	46.28152466	0.4491938949	-0.04898542166	-0.001470138668	-0.02505244501	-6.719924927	1.0
8	46.28150177	0.4491938949	-0.04898542166	-0.001470138668	-0.02505244501	-6.721132755	1.0
[LeftHandRing3]
7	29.52356529	-0.4491446018	0.04897363856	-0.001541288686	-0.02497791871	-6.722372055	1.0
8	29.52356529	-0.4491446018	0.04897363856	-0.001541288686	-0.02512569912	-6.721990585	1.0
[LeftHandRing4]
7	29.06702423	-8.604244795e-005	2.019225394e-005	-0.0005856125499	-1.556767347e-005	0.0001773452823	1.0
8	29.06702423	-8.604244795e-005	2.019225394e-005	-0.0005856125499	-1.556767347e-005	0.0001773452823	1.0
[LeftHandPinky1]
7	104.5423508	-10.75370884	-37.43120956	-0.002290672623	-0.02562187426	-6.723196983	1.0
8	104.5423508	-10.75370884	-37.43115997	-0.002290672623	-0.02571376227	-6.721547127	1.0
[LeftHandPinky2]
7	32.66366577	4.504872413e-005	-1.192557738e-005	-0.002319539664	-0.02621368133	-6.732774734	1.0
8	32.66362762	4.504872413e-005	-1.192557738e-005	-0.002319539664	-0.0260670688	-6.737502575	1.0
[LeftHandPinky3]
7	25.58556747	-0.0002099084086	6.552904779e-006	-0.002331972588	-0.02640204132	-6.725250244	1.0
8	25.58556747	-0.0002099084086	6.552904779e-006	-0.002331972588	-0.0264057219	-6.721068382	1.0
[LeftHandPinky4]
7	24.98874855	3.370519698e-005	2.254853462e-005	-0.0005195768899	8.110216731e-005	0.0001606175356	1.0
8	24.98874855	3.370519698e-005	2.254853462e-005	-0.0005195768899	8.110216731e-005	0.0001606175356	1.0
[LH_WP]
7	120	-50	-1.776356839e-014	0	0	0	1.0
8	120	-50	-1.776356839e-014	0	0	0	1.0
[LeftArmRoll]
7	132.8951263	-3.015438415e-005	-0.0002311447752	-2.663570626e-007	-4.568414909e-007	4.582375823e-006	1.0
8	132.8950195	0.0001701195288	-2.866412979e-005	-2.663570626e-007	-4.568414909e-007	4.582375823e-006	1.0
[RightShoulder]
7	193.5422058	-57.97074127	41.53350449	17.38335991	-3.346367836	-22.55843353	1.0
8	193.5422058	-57.97074127	41.53350449	16.44395638	-4.814673424	-21.10558128	1.0
[RightArm]
7	-156.8789978	-0.001020917087	9.682989912e-005	11.16447353	0.7450525761	-40.90294647	1.0
8	-156.8792114	-0.001020917087	9.682989912e-005	5.762208939	-14.9517765	-45.59635162	1.0
[RightForeArm]
7	-274.6984558	-0.003900356125	-4.672255272e-006	-1.574157834	-0.1776606143	-73.73555756	1.0
8	-274.6984558	-0.003975374624	6.492546527e-005	-1.614170671	0.5634641051	-81.13619995	1.0
[RightHand]
7	-266.6990662	-0.00309585128	0.0009028806817	2.155631542	-10.53244209	17.05745888	1.0
8	-266.6991577	-0.00292045041	0.0008665286005	-0.5056977272	-9.650707245	12.31376648	1.0
[RightHandThumb1]
7	-31.59893799	14.66024399	-50.44496155	-0.01161240693	-13.49965763	-2.857634306	1.0
8	-31.59878159	14.66024399	-50.44496155	-0.01159924548	-13.49975872	-2.857761621	1.0
[RightHandThumb2]
7	-53.38210297	-0.001580558019	-0.006655869074	0.0003864055034	-0.0002370450675	-0.0003813319199	1.0
8	-53.38214111	-0.001591888955	-0.006656229496	0.0003864055034	-0.0002557300031	-0.0004666256136	1.0
[RightHandThumb3]
7	-33.22888565	-6.998400931e-005	0.00538565265	0.001325118588	-0.0004170481989	-0.0004574774357	1.0
8	-33.22888565	-6.998400931e-005	0.00538565265	0.001325118588	-0.0004957460333	2.169320032e-005	1.0
[RightHandThumb4]
7	-41.64128876	6.732883048e-005	-0.001961095491	0.001914707827	-0.0001924577227	-0.0005631271051	1.0
8	-41.64128876	6.732883048e-005	-0.001961095491	0.001914707827	-0.0001924577227	-0.0005631271051	1.0
[RightHandIndex1]
7	-107.8279724	7.018690109	-35.9875946	0.0003881388693	-0.02163384296	-6.721419334	1.0
8	-107.8280258	7.018690109	-35.9875946	0.0003881388693	-0.02163384296	-6.721337318	1.0
[RightHandIndex2]
7	-41.10917664	-0.003337909468	4.21212826e-005	0.0005543127772	-0.02149415016	-6.721644402	1.0
8	-41.10917664	-0.003337909468	4.21212826e-005	0.0005543127772	-0.02149415016	-6.722002506	1.0
[RightHandIndex3]
7	-28.810215	0.001759051112	-9.90186436e-006	0.001298090094	-0.02107938752	-6.721663475	1.0
8	-28.810215	0.001759051112	-9.90186436e-006	0.001298090094	-0.02107820846	-6.721139908	1.0
[RightHandIndex4]
7	-28.71777344	-0.003107428085	1.549930312e-005	0.00226092455	0.0006115095457	0.0002031581535	1.0
8	-28.71786118	-0.003107428085	1.549930312e-005	0.00226092455	0.0006115095457	0.0002031581535	1.0
[RightHandMiddle1]
7	-108.9268646	1.063620448	-10.86113548	0.0005381311639	-0.02273362316	-6.721609116	1.0
8	-108.9268646	1.063620448	-10.86123657	0.0005381311639	-0.02263057232	-6.721770287	1.0
[RightHandMiddle2]
7	-50.48837662	0.001322705648	-2.671446418e-005	0.0006534365821	-0.02252226323	-6.728364468	1.0
8	-50.48841476	0.001322705648	-2.671446418e-005	0.0006534365821	-0.02252226323	-6.728229046	1.0
[RightHandMiddle3]
7	-33.42220306	-0.003336391877	-5.855613927e-005	0.001414699247	-0.02198904753	-6.721917629	1.0
8	-33.42205048	-0.003336391877	-3.798639591e-005	0.001414699247	-0.02182614245	-6.721567631	1.0
[RightHandMiddle4]
7	-30.04626083	0.000816694228	-2.710313311e-005	0.002405878855	0.00054273149	0.0001783560583	1.0
8	-30.04626083	0.000816694228	6.349589239e-005	0.002405878855	0.00054273149	0.0001783560583	1.0
[RightHandRing1]
7	-109.0495224	2.691092491	12.87384129	0.0005415810738	-0.02258249745	-6.721624374	1.0
8	-109.0495605	2.691092491	12.87384129	0.0005415810738	-0.02258249745	-6.72133255	1.0
[RightHandRing2]
7	-46.2803688	-0.4511589408	0.04896107689	0.0006064998452	-0.02426320314	-6.721230507	1.0
8	-46.2803688	-0.4511589408	0.04896107689	0.0006064998452	-0.02426320314	-6.72177887	1.0
[RightHandRing3]
7	-29.52498245	0.4504946172	-0.04901462793	0.001238655415	-0.02363421023	-6.721931934	1.0
8	-29.52511597	0.4504946172	-0.04901462793	0.001238655415	-0.02358927764	-6.721811295	1.0
[RightHandRing4]
7	-29.06614494	-0.005823877174	7.770192315e-005	0.002492689295	0.0005187573261	0.0001824576757	1.0
8	-29.06624031	-0.005823877174	7.770192315e-005	0.002492689295	0.0005187573261	0.0001824576757	1.0
[RightHandPinky1]
7	-104.5423126	10.74948311	37.43106461	0.0005379587528	-0.02515815943	-6.721714497	1.0
8	-104.5423126	10.74948311	37.43106461	0.0005379587528	-0.02515815943	-6.721493721	1.0
[RightHandPinky2]
7	-32.66365051	0.005212226883	-6.190213753e-005	0.0007540693623	-0.02490916476	-6.7371912	1.0
8	-32.66365051	0.005212226883	-9.386523743e-005	0.0007540693623	-0.02490916476	-6.737792492	1.0
[RightHandPinky3]
7	-25.58568001	-0.002913864329	9.440085705e-005	0.001331240055	-0.0241870638	-6.72153759	1.0
8	-25.58577347	-0.002913864329	9.440085705e-005	0.001331240055	-0.02414618805	-6.721078396	1.0
[RightHandPinky4]
7	-24.98809814	-0.004919932224	6.394286174e-006	0.002199850045	0.0006204504753	0.0001916140027	1.0
8	-24.98809814	-0.004919932224	6.394286174e-006	0.002199850045	0.0006204504753	0.0001916140027	1.0
[RH_WP]
7	-90.81784058	44.75069046	-9.102725983	-0.1271575838	-2.744757175	2.677313566	1.0
8	-90.81784058	44.75069046	-9.102725983	-0.1271575838	-2.744757175	2.677313566	1.0
[RightForeArmRoll]
7	-107.0118866	-0.003058596514	1.442765006e-005	1.724505186	0	0	1.0
8	-107.0118866	-0.003058596514	1.442765006e-005	-0.404558301	0	0	1.0
[RightArmRoll]
7	-132.8953247	0.0004940421204	8.127277397e-005	-2.260197107e-006	-2.431532664e-007	7.477638519e-006	1.0
8	-132.8954315	0.0005777817569	7.30861284e-005	-2.260197107e-006	-2.431532664e-007	7.477638519e-006	1.0
[Neck]
7	269.5574341	-6.651951117e-005	-5.438935659e-006	2.156724691	1.20312798	3.439425707	1.0
8	269.559082	-0.0001544314437	-5.438935659e-006	1.575988054	0.8850759268	3.288713455	1.0
[Neck1]
7	55.64785767	8.853046165e-005	1.173807505e-005	2.495429993	0.8197081685	3.353974342	1.0
8	55.64807892	8.853046165e-005	1.173807505e-005	1.883602858	0.5723849535	3.219589949	1.0
[Head]
7	48.2782402	-0.000105318366	-1.697512198e-005	9.858755112	-2.645093918	11.77690792	1.0
8	48.27819061	-0.0001108080323	-1.697512198e-005	7.969936371	-0.7676131129	13.09841156	1.0
[Jaw]
7	16.62527084	-28.49801064	-6.624434263e-007	0	0	0	1.0
8	16.62527084	-28.49801064	-6.624434263e-007	0	0	0	1.0
[L_Eye]
7	62.91468811	-92.7388916	-39.95373535	0	0	0	1.0
8	62.91468811	-92.7388916	-39.95373535	0	0	0	1.0
[R_Eye_Socket]
7	62.91468811	-92.7388916	39.94999695	0	0	0	1.0
8	62.91468811	-92.7388916	39.94999695	0	0	0	1.0
[L_Eye_Socket]
7	62.91468811	-92.7388916	-39.95373535	0	0	0	1.0
8	62.91468811	-92.7388916	-39.95373535	0	0	0	1.0
[R_Eye]
7	62.91468811	-92.7388916	39.94999695	0	0	0	1.0
8	62.91468811	-92.7388916	39.94999695	0	0	0	1.0
[BK_WEP1]
7	159.8800049	132.8500061	-1.533420634e-012	0	0	0	1.0
8	159.8800049	132.8500061	-1.533420634e-012	0	0	0	1.0
[RightUpLeg]
7	-47.72180176	-9.041660309	88.56559753	-30.85028076	-9.933119774	34.12349701	1.0
8	-47.72180176	-9.041695595	88.56568909	-23.96011734	-10.73868561	21.71528244	1.0
[RightLeg]
7	-428.6570435	7.533050666e-005	0.0005533354124	1.650361776	-5.252738476	-45.07316971	1.0
8	-428.6572266	-1.733409954e-005	0.0004888930707	3.188764572	-2.347203255	-46.75378418	1.0
[RightFoot]
7	-444.4241943	0.01009597629	-0.01277689729	15.77643108	4.863389015	18.46131325	1.0
8	-444.4238281	0.005803449079	-0.227045849	10.57931614	0.3714309037	31.88651276	1.0
[RightToeBase]
7	-155.2787476	7.428698154e-006	-2.909067916e-005	-0.006419956684	-0.002979059471	0.1538589895	1.0
8	-155.278717	7.428698154e-006	-2.909067916e-005	-0.7272413373	-0.1345790327	-0.3207859397	1.0
[RightToeEnd]
7	-87.17578125	-5.002963007e-005	-0.0004951364244	0	0	0	1.0
8	-87.17578125	-5.002963007e-005	-0.0004951364244	0	0	0	1.0
[RightLegRoll]
7	-198.5743561	2.495489753e-005	-0.0004470431304	0.03333243728	-0.002675983589	-0.002325775335	1.0
8	-198.5741272	-2.484767901e-005	-0.0004470431304	1.033950567	-0.0526076816	-0.001298996969	1.0
[RightUpLegRoll]
7	-166.7199097	0.0001206037996	-3.218563143e-005	1.387047269e-005	-1.121582272e-006	7.828991329e-006	1.0
8	-166.7200928	7.157194887e-006	-3.218563143e-005	1.387047269e-005	-1.121582272e-006	7.828991329e-006	1.0
[EndOfFile]
